<svg xmlns="http://www.w3.org/2000/svg" version="1.1" xmlns:xlink="http://www.w3.org/1999/xlink" xmlns:svgjs="http://svgjs.dev/svgjs" width="1000" height="212" viewBox="0 0 1000 212"><g transform="matrix(1,0,0,1,-0.6060588403398697,0.46075504585785154)"><svg viewBox="0 0 396 84" data-background-color="#ffffff" preserveAspectRatio="xMidYMid meet" height="212" width="1000" xmlns="http://www.w3.org/2000/svg" xmlns:xlink="http://www.w3.org/1999/xlink"><g id="tight-bounds" transform="matrix(1,0,0,1,0.23999950975343154,-0.1825633200568859)"><svg viewBox="0 0 395.52 84.36512664011374" height="84.36512664011374" width="395.52"><g><svg viewBox="0 0 548.2277498736571 116.93796406178116" height="84.36512664011374" width="395.52"><g transform="matrix(1,0,0,1,152.7077498736571,16.161469707525477)"><svg viewBox="0 0 395.52000000000004 84.6150246467302" height="84.6150246467302" width="395.52000000000004"><g id="textblocktransform"><svg viewBox="0 0 395.52000000000004 84.6150246467302" height="84.6150246467302" width="395.52000000000004" id="textblock"><g><svg viewBox="0 0 395.52000000000004 84.6150246467302" height="84.6150246467302" width="395.52000000000004"><g transform="matrix(1,0,0,1,0,0)"><svg width="395.52000000000004" viewBox="1.399999976158142 -32.20000076293945 152.13999938964844 32.54999923706055" height="84.6150246467302" data-palette-color="#ee3e38"><path d="M4.8-10.7L4.8-10.7 4.8-16.6Q3.55-16.65 2.8-17.03 2.05-17.4 1.73-18 1.4-18.6 1.4-19.5L1.4-19.5Q1.4-22.35 4.85-22.6L4.85-22.6 4.85-27.25Q4.85-29.15 7.6-30.68 10.35-32.2 13.05-32.2L13.05-32.2Q14.7-32.2 15.2-31.25 15.7-30.3 15.7-28.4L15.7-28.4 15.75-22.65 17.1-22.65Q19.85-22.65 20.88-21.93 21.9-21.2 21.9-19.3L21.9-19.3Q21.9-18.5 21.6-17.95 21.3-17.4 20.63-17.1 19.95-16.8 19-16.68 18.05-16.55 16.65-16.55L16.65-16.55 15.75-16.55 15.75-11.05Q15.75-10.25 15.83-9.73 15.9-9.2 16.05-8.9 16.2-8.6 16.48-8.5 16.75-8.4 17.15-8.4L17.15-8.4Q17.75-8.4 18.15-8.83 18.55-9.25 18.78-9.78 19-10.3 19.38-10.73 19.75-11.15 20.25-11.15L20.25-11.15Q21.4-11.15 22.03-10.6 22.65-10.05 22.65-9.25L22.65-9.25Q22.65-7.9 22.13-6.35 21.6-4.8 20.6-3.35 19.6-1.9 17.82-0.95 16.05 0 13.85 0L13.85 0Q8.9 0 6.85-2.5 4.8-5 4.8-10.7ZM35.55 0.3L35.55 0.3Q31.6 0.3 29-2.93 26.4-6.15 26.4-11.75L26.4-11.75Q26.4-17.45 28.97-20.83 31.55-24.2 35.55-24.2L35.55-24.2Q39.6-24.2 43.05-21.35L43.05-21.35Q44.4-23.85 47.4-23.85L47.4-23.85Q50.1-23.85 51.6-22.68 53.1-21.5 53.1-18.35L53.1-18.35 53.1-5.35Q53.1-2.35 51.85-1.18 50.6 0 47.45 0L47.45 0Q44.15 0 43.1-1.85L43.1-1.85Q39.9 0.3 35.55 0.3ZM42.35-7.2L42.35-16.55Q41.5-18 40.15-18L40.15-18Q38.85-18 38.05-16.1 37.25-14.2 37.25-11.75L37.25-11.75Q37.25-9.45 38-7.65 38.75-5.85 40.1-5.85L40.1-5.85Q41.5-5.85 42.35-7.2L42.35-7.2ZM68.55-15.4L68.55-5.35Q68.55-2.35 67.3-1.18 66.05 0 62.85 0L62.85 0Q59.9 0 58.85-1.38 57.8-2.75 57.8-5.9L57.8-5.9 57.8-18.2Q57.8-19.9 58.4-21.18 59-22.45 60.15-23.15 61.3-23.85 62.85-23.85L62.85-23.85Q66.65-23.85 67.84-21.65L67.84-21.65Q70.75-23.85 73.45-23.85L73.45-23.85Q78.7-23.85 78.7-18.85L78.7-18.85Q78.7-16.85 77.55-15.6 76.4-14.35 74.55-14.35L74.55-14.35Q73.45-14.35 72.77-14.8 72.09-15.25 71.52-15.7 70.95-16.15 70.2-16.15L70.2-16.15Q69.09-16.15 68.55-15.4L68.55-15.4ZM92.29-19.7L92.34-10.55Q92.34-7.7 94.54-7.7L94.54-7.7Q95.29-7.7 95.87-8.18 96.44-8.65 96.74-9.5 97.04-10.35 97.04-11.45L97.04-11.45 97.04-18.15Q97.04-19.85 97.64-21.13 98.24-22.4 99.39-23.1 100.54-23.8 102.09-23.8L102.09-23.8Q104.79-23.8 106.29-22.63 107.79-21.45 107.79-18.3L107.79-18.3 107.79-5.3Q107.79-2.25 106.54-1.1 105.29 0.05 102.14 0.05L102.14 0.05Q100.79 0.05 99.84-0.23 98.89-0.5 98.32-1.05 97.74-1.6 97.44-2.5L97.44-2.5Q95.39-1.15 93.12-0.6 90.84-0.05 88.04-0.05L88.04-0.05Q84.49-0.05 82.94-2.83 81.39-5.6 81.39-11.95L81.39-11.95Q81.39-15.1 81.54-17.07 81.69-19.05 82.02-20.48 82.34-21.9 83.02-22.6 83.69-23.3 84.62-23.6 85.54-23.9 87.04-23.9L87.04-23.9Q89.84-23.9 91.07-22.85 92.29-21.8 92.29-19.7L92.29-19.7ZM128.04-4.15L127.99-13.45Q127.99-16.25 125.79-16.25L125.79-16.25Q124.74-16.25 124.06-15.38 123.39-14.5 123.29-13.05L123.29-13.05 123.29-5.35Q123.29-2.3 122.04-1.15 120.79 0 117.64 0L117.64 0Q114.69 0 113.62-1.38 112.54-2.75 112.54-5.9L112.54-5.9 112.54-18.2Q112.54-20.75 113.92-22.3 115.29-23.85 117.59-23.85L117.59-23.85Q119.49-23.85 120.79-23.3 122.09-22.75 122.74-21.4L122.74-21.4Q126.64-23.95 132.24-23.95L132.24-23.95Q135.79-23.95 137.37-21.15 138.94-18.35 138.94-11.95L138.94-11.95Q138.94-8.8 138.79-6.83 138.64-4.85 138.31-3.43 137.99-2 137.29-1.3 136.59-0.6 135.67-0.3 134.74 0 133.29 0L133.29 0Q130.49 0 129.27-1.05 128.04-2.1 128.04-4.15L128.04-4.15ZM142.64-3.45L142.64-3.45Q142.64-5.15 144.06-6.2 145.49-7.25 148.09-7.25L148.09-7.25Q153.54-7.25 153.54-3.45L153.54-3.45Q153.54-2 152.84-1.13 152.14-0.25 150.99 0.05 149.84 0.35 148.09 0.35L148.09 0.35Q145.74 0.35 144.19-0.55 142.64-1.45 142.64-3.45Z" opacity="1" transform="matrix(1,0,0,1,0,0)" fill="#ee3e38" class="wordmark-text-0" data-fill-palette-color="primary" id="text-0"></path></svg></g></svg></g></svg></g></svg></g><g><svg viewBox="0 0 132.73217331515562 116.93796406178116" height="116.93796406178116" width="132.73217331515562"><g><svg xmlns="http://www.w3.org/2000/svg" xmlns:xlink="http://www.w3.org/1999/xlink" version="1.1" x="0" y="0" viewBox="6.300000190734863 11.5 87.39999389648438 77" style="enable-background:new 0 0 100 100;" xml:space="preserve" height="116.93796406178116" width="132.73217331515562" class="icon-icon-0" data-fill-palette-color="accent" id="icon-0"><path d="M72.3 12.3L72.3 12.3 72.3 12.3l-0.4-0.8H28.2L6.3 50l21.8 38.5h43.7L93.7 50 72.3 12.3zM33.3 25.3L9.9 47.7l18.6-32.8L33.3 25.3zM70.7 14.8l6.4 35.7L36.9 25.8 70.7 14.8zM35.5 27.3l41 25.2-41 23.3V27.3zM77 54.5l-7.2 30.8-32.6-8.1L77 54.5zM33.5 75L9.9 50.5l23.6-22.7V75zM33.2 77.6l-4.6 7.7L11.5 55.1 33.2 77.6zM35 78.6l31.4 7.9H30.2L35 78.6zM79.3 53.3l11.6-2.5L72.1 84 79.3 53.3zM90.7 48.9l-11.4 2.5-5.9-33.1L90.7 48.9zM35 24.3l-5-10.8h38.2L35 24.3z" fill="#ee3e38" data-fill-palette-color="accent"></path></svg></g></svg></g></svg></g><defs></defs></svg><rect width="395.52" height="84.36512664011374" fill="none" stroke="none" visibility="hidden"></rect></g></svg></g></svg>